<svg xmlns="http://www.w3.org/2000/svg" width="32" height="32"><path d="M21 26v2.003A1.994 1.994 0 0119.003 30H3.998a2 2 0 01-1.997-2.007V5.008c0-1.109.899-2.007 2.009-2.007h9.991v6.002c0 1.111.898 1.998 2.006 1.998h4.994v2h-8.993A3.002 3.002 0 009.001 16v7.002a2.997 2.997 0 003.007 2.999h8.993zM15 3v5.997c0 .554.451 1.003.991 1.003H21l-6-7zm-3.005 11h17.011a2 2 0 011.995 1.992v7.016A1.999 1.999 0 0129.006 25H11.995A2 2 0 0110 23.008v-7.016C10 14.9 10.893 14 11.995 14zM25 19v-2h4v-1h-5v7h1v-3h3v-1h-3zm-13-1v5h1v-3h1.995a2 2 0 100-4H12v2zm1-1v2h2.001A.997.997 0 0016 18c0-.552-.443-1-.999-1H13zm5-1v7h2.995A1.999 1.999 0 0023 20.994v-2.988A2.003 2.003 0 0020.995 16H18zm1 1v5h2.001A.997.997 0 0022 21v-3c0-.552-.443-1-.999-1H19z"/></svg>