<svg xmlns="http://www.w3.org/2000/svg" xmlns:xlink="http://www.w3.org/1999/xlink" viewBox="0 0 461.02 401.37"><defs><style>.cls-1{fill:url(#linear-gradient);}.cls-2{fill:url(#linear-gradient-2);}.cls-3{fill:url(#linear-gradient-3);}</style><linearGradient id="linear-gradient" x1="135.14" y1="154.9" x2="135.14" y2="2" gradientUnits="userSpaceOnUse"><stop offset="0" stop-color="#e5e5e5"/><stop offset="0.07" stop-color="#ccd9dc"/><stop offset="0.26" stop-color="#8fbbc7"/><stop offset="0.44" stop-color="#5ca2b4"/><stop offset="0.61" stop-color="#348ea6"/><stop offset="0.77" stop-color="#17809c"/><stop offset="0.9" stop-color="#067896"/><stop offset="1" stop-color="#007594"/></linearGradient><linearGradient id="linear-gradient-2" x1="246.9" y1="101.17" x2="464.15" y2="101.17" gradientUnits="userSpaceOnUse"><stop offset="0" stop-color="#cbcbcb"/><stop offset="0.02" stop-color="#c5c7c6"/><stop offset="0.21" stop-color="#8a9d8b"/><stop offset="0.41" stop-color="#59795a"/><stop offset="0.58" stop-color="#325e34"/><stop offset="0.75" stop-color="#174a19"/><stop offset="0.89" stop-color="#063e09"/><stop offset="1" stop-color="#003a03"/></linearGradient><linearGradient id="linear-gradient-3" x1="137.28" y1="261.33" x2="315.56" y2="261.33" gradientUnits="userSpaceOnUse"><stop offset="0.01" stop-color="#e5e5e5"/><stop offset="0.02" stop-color="#e5e4e2"/><stop offset="0.12" stop-color="#e1d7ae"/><stop offset="0.24" stop-color="#ddcb7f"/><stop offset="0.35" stop-color="#dbc158"/><stop offset="0.46" stop-color="#d8b938"/><stop offset="0.58" stop-color="#d6b31f"/><stop offset="0.71" stop-color="#d5ae0e"/><stop offset="0.84" stop-color="#d4ac03"/><stop offset="1" stop-color="#d4ab00"/></linearGradient></defs><title>figure</title><g id="none"><path class="cls-1" d="M169.22,154.9a7.84,7.84,0,0,0-.94-.6,8.6,8.6,0,0,0-1.93-.76,9.14,9.14,0,0,0-1.22-.23c-.33,0-.59-.06-.95-.08s-.72,0-1.2,0-.38,0-.83,0-.75,0-1.07,0H94.15l-91-146L187.92,2l7.45,18q1.06,2.58,2.18,5.17,2.85,6.7,5.78,13.12c.85,1.91,1.64,3.54,2.29,4.84.41.82,1.77,3.5,3.7,6.87,1,1.78,1.65,2.77,1.9,3.17.6.94.87,1.32,2.18,3.23L218,63.06c.25.36.69,1,1.29,1.83l1,1.42c1,1.36,1.13,1.58,1.71,2.35s1,1.27,1.37,1.76c2.8,3.48,5.2,6,5.2,6,2,2.16,3.68,3.65,5.28,5.11,1.88,1.71,3.84,3.49,6.32,5.37a55.85,55.85,0,0,0,10.44,6.41c1.82.85,3.52,1.58,3.52,1.58.2.08,1.12.45,2.29.86a62.27,62.27,0,0,0,6.74,1.93c.67.15,1.37.29,2.09.43l1.9.33-5.5.19-24.58,1.08-20.36.82-10.64.38-3,.09-6.64.18-2.59,0c-.75,0-1.32,0-2,0-.51,0-.92-.09-1.1-.12s-.56-.07-1-.16c-.16,0-.52-.1-1-.22-.3-.07-.8-.21-1.42-.42l-.56-.2s-.55-.21-1.08-.45a27.53,27.53,0,0,1-2.7-1.53c-.86-.55-2-1.3-3.24-2.24s-2.47-2-3.21-2.59c-.59-.5-.92-.79-3.53-3.08l-1.46-1.28-2.59-2.26-.78-.67-1-.83c-.34-.3-.83-.74-1.42-1.31l-.86-.84-.75-.74c-1.14-1.17-2.3-2.32-3.44-3.48s-4.59-4.62-15.52-15.54h-51l3.74,5.55,17.81,26.4q1.35,2.4,3,5c1.47,2.24,3,4.26,4.4,6.08a94.92,94.92,0,0,1,15.72,4.8c2.34,1,3.95,1.73,4.54,2a56.35,56.35,0,0,1,10.27,6.25,43.83,43.83,0,0,1,7.35,7,36.73,36.73,0,0,1,3.53,5,34.27,34.27,0,0,1,4.37,12.2,49,49,0,0,1,.41,7.28C169.34,152.41,169.28,153.86,169.22,154.9Z" transform="translate(-3.13 -2)"/><path class="cls-2" d="M258.1,80.09a57.46,57.46,0,0,1-6.23-3.72l-.46-.33a5.13,5.13,0,0,0,.76-.35,6.85,6.85,0,0,0,.89-.61,11.67,11.67,0,0,0,1.06-.93L255,73c.37-.6.74-1.2,1.12-1.8q12.72-21.78,25.4-43.8,4.5-7.82,9-15.61L464.15,6.23,376,167.75l-2-.27-3.83-.53-4.08-.55-4.05-.56-4.14-.55-5-.66L340,163.1l-4-.4-4.46-.36-2.29-.13-1.87-.08c-1.07,0-2-.06-2.77-.07-1.16,0-2,0-2.28,0-.45,0-1.17,0-2.05.07l-2.36.15c-4.76.32-7.13.48-8.77.61-2.88.23-6.5.51-11.15,1.24-2,.31-4.35.68-7.39,1.42-2.8.68-4.85,1.34-6.66,1.93a80.88,80.88,0,0,0-9.11,3.35,63.25,63.25,0,0,0-11.17,6.45,50,50,0,0,0-5.33,4.35,56.8,56.8,0,0,0-4.69,5c-1.42,1.67-2.36,3-2.7,3.4-.85,1.16-1.54,2.19-2.08,3l-1.9,3c1.42-2.61,2.35-4.32,2.94-5.43.13-.23.33-.62.63-1.17.92-1.71,1.34-2.47,1.86-3.41s1-1.87,2-3.71l2-3.82c.31-.59.6-1.15,2.72-5.15,3.35-6.36,3-5.72,3.83-7.26s1.48-2.83,2.61-5c.59-1.1,1.07-2,1.39-2.62s.7-1.34,1.06-2l.85-1.6c.4-.75.7-1.31.83-1.57,0,0,.29-.53,2-3.66l2.46-4.62,2-3.82c1.8-3.39,3.2-6,4.66-8.63,3.95-7.25,2.77-4.9,3.6-6.5a26.69,26.69,0,0,1,2-3.44,25.48,25.48,0,0,1,3.11-3.5c1-.93,3-2.53,11.55-5.72,2.17-.81,3.86-1.39,7-2.45,2.74-.94,5-1.7,6.65-2.22l28.16-7.45c1-1.61,1.93-3.22,2.89-4.84Q357.32,77,368.4,57.46l-51.71,3.39c-1.41,1.49-3.38,3.48-5.84,5.71A85.71,85.71,0,0,1,301.73,74a66.15,66.15,0,0,1-8.52,5.12c-.71.35-1.75.87-3.15,1.45a46.46,46.46,0,0,1-9.4,2.77,35.73,35.73,0,0,1-13.56,0A33.59,33.59,0,0,1,258.1,80.09Z" transform="translate(-3.13 -2)"/><path class="cls-3" d="M280,185.35a7.73,7.73,0,0,0-.06,1.3,8.21,8.21,0,0,0,.32,2c.11.36.22.66.31.88.24.57.45,1,.62,1.35s.22.43.39.72.21.33.38.62.31.53.42.72c.32.58.65,1.15,1,1.72s2.41,4.26,7.78,13.76l7.52,13.27,8,14.17,8.85,15.65q-40.49,75.93-80.95,151.87L137.28,247.05l16.58-21.91,9.41-13.41a168.13,168.13,0,0,0,9.38-16.88c3.57-7.4,7.18-15,9.62-25.5,1.54-6.64,3.13-13.76,2.25-23.12a60,60,0,0,0-4.75-18.31c-.63-1.41-1.34-2.9-2.16-4.44s-1.6-2.9-2.4-4.18l3.69,4.1,3.37,4.23c.37.5.93,1.27,1.58,2.23s1,1.6,1.57,2.48c.75,1.22,1.53,2.44,2.29,3.66l5.44,8.69c4.56,7.32,4,6.48,6.41,10.26,0,0,4.19,6.73,8.73,14.09l2.13,3.45,3.54,5.75,2.9,4.78c2.31,3.81.11.19,3.14,5.24.08.13.49.81,1,1.74.68,1.2,1,1.82,1.38,2.61a19.31,19.31,0,0,1,.84,2.32,17.91,17.91,0,0,1,.6,3.23c0,.49,0,.85.06,1.13a25.47,25.47,0,0,1-.1,2.94c-.06.82-.16,1.87-.3,3.1-.12.79-.3,2-.55,3.37-.3,1.7-.45,2.29-.92,4.6-.76,3.72-1.17,6-1.8,8.8-.21.9-.37,1.52-.45,1.84-.18.71-.35,1.29-.81,2.92-.31,1.07-.46,1.61-.63,2.2-.36,1.23-.85,3-1.83,6.53-.05.18-.93,3.33-1.78,6.43-.2.71-.49,1.8-.92,3.31-.36,1.32-.4,1.46-.53,1.9-.28,1-.66,2.47-1.09,4.3l25.06,44.31c8.88-17.79,14.81-29.7,15.78-31.73.12-.26.61-1.31,1.36-2.69s1-1.78,1.61-2.8a64.68,64.68,0,0,0,3-5.87c.39-.88.89-2,1.42-3.34a91,91,0,0,1-2.5-9.58,72.25,72.25,0,0,1-1.64-13.35A51,51,0,0,1,258,210.14a38.09,38.09,0,0,1,5.34-11.66,32.46,32.46,0,0,1,5.08-5.76,39,39,0,0,1,3.39-2.67c1.17-.82,2.15-1.41,2.76-1.78,1.14-.68,2-1.17,2.63-1.49C278.29,186.2,279.25,185.73,280,185.35Z" transform="translate(-3.13 -2)"/></g></svg>