<?xml version="1.0" encoding="UTF-8"?><!DOCTYPE svg PUBLIC "-//W3C//DTD SVG 1.1//EN" "http://www.w3.org/Graphics/SVG/1.1/DTD/svg11.dtd"><svg xmlns="http://www.w3.org/2000/svg" xmlns:xlink="http://www.w3.org/1999/xlink"><defs><style>.cls-1{fill:url(#linear-gradient);}.cls-2{fill:url(#linear-gradient-2);}.cls-3{fill:url(#linear-gradient-3);}.cls-4{font-size:162px;font-family:Vani, Vani;letter-spacing:0.1em;}</style><linearGradient id="linear-gradient" x1="684.18" y1="176.29" x2="684.18" y2="22.68" gradientUnits="userSpaceOnUse"><stop offset="0" stop-color="#fff"/><stop offset="0.08" stop-color="#cee5eb"/><stop offset="0.17" stop-color="#9ecbd6"/><stop offset="0.26" stop-color="#74b4c5"/><stop offset="0.36" stop-color="#50a0b6"/><stop offset="0.46" stop-color="#3391a9"/><stop offset="0.57" stop-color="#1c84a0"/><stop offset="0.69" stop-color="#0c7c99"/><stop offset="0.82" stop-color="#037795"/><stop offset="1" stop-color="#007594"/></linearGradient><linearGradient id="linear-gradient-2" x1="795.07" y1="121.67" x2="1012.07" y2="121.67" gradientUnits="userSpaceOnUse"><stop offset="0" stop-color="#fff"/><stop offset="0.04" stop-color="#e1e8e1"/><stop offset="0.1" stop-color="#b2c4b3"/><stop offset="0.17" stop-color="#88a389"/><stop offset="0.24" stop-color="#638665"/><stop offset="0.32" stop-color="#446f46"/><stop offset="0.4" stop-color="#2b5b2e"/><stop offset="0.5" stop-color="#184c1b"/><stop offset="0.61" stop-color="#0a420d"/><stop offset="0.74" stop-color="#023c05"/><stop offset="1" stop-color="#003a03"/></linearGradient><linearGradient id="linear-gradient-3" x1="684.07" y1="282.17" x2="863.98" y2="282.17" gradientUnits="userSpaceOnUse"><stop offset="0" stop-color="#fff"/><stop offset="0.03" stop-color="#fcf8eb"/><stop offset="0.1" stop-color="#f3e8ba"/><stop offset="0.17" stop-color="#ecda8e"/><stop offset="0.25" stop-color="#e5cd67"/><stop offset="0.33" stop-color="#e0c247"/><stop offset="0.42" stop-color="#dcba2d"/><stop offset="0.52" stop-color="#d8b319"/><stop offset="0.63" stop-color="#d6af0b"/><stop offset="0.77" stop-color="#d4ac02"/><stop offset="1" stop-color="#d4ab00"/></linearGradient></defs><symbol id="logo" viewBox="0 0 1876.73 487.49"><title>main-logo</title><g id="blue"><path class="cls-1" d="M725.07,174.17c-.5.28-4.87,2.68-8,2a9.46,9.46,0,0,1-3-1,3.81,3.81,0,0,0-2-1h-70l-91-146,184.67-5.49,22.33,45.49c19.17,32.35,32.76,40.9,42,42,2.78.33,15.25,1.2,17,7a5.5,5.5,0,0,1,0,3l-66,2a32.76,32.76,0,0,1-24-4l-34-34c-1,0-2.77,0-5,0-9.51.1-13.83.72-25,1a59.92,59.92,0,0,1-8.12,0,28.14,28.14,0,0,0-8.22-.69c-1.57.15-2.36.23-2.66.72-1.21,2,6.12,8.39,10,12,14.13,13.13,11.88,16.9,22,26,13.72,12.33,20.57,7.84,32,18C714.17,146.59,721.57,156.16,725.07,174.17Z" transform="translate(-4 -6.33)"/></g><g id="green"><path class="cls-2" d="M797.09,104.72c0-.57.1-5.55,2.25-7.93a9.47,9.47,0,0,1,2.36-2.1,3.77,3.77,0,0,0,1.87-1.24l.5-.86s.14-.26.5-.87c.46-.81.92-1.62,1.39-2.42l23.52-40.93,9-15.61,173.62-5.59q-44,81.51-88,163a182.07,182.07,0,0,0-51.52-4c-16.85,1.11-36.94,2.67-57.35,15.48a95.35,95.35,0,0,0-14.54,11.25l-5.59,3.28q1-2.49,2-5,15.51-29,31-58a40.73,40.73,0,0,1,16.57-18.8l46.43-12.54c.5-.85,1.4-2.39,2.49-4.33,4.65-8.3,6.27-12.35,11.59-22.18a60.1,60.1,0,0,1,4.08-7,39.12,39.12,0,0,0,4.68-6.77c.53-1,.91-1.79,1.16-2.35l-15.84,2.37a55.15,55.15,0,0,1-13.14,3.07c-4.67.48-7.5.26-13.54,1.3a49.19,49.19,0,0,0-6.83,1.75c-17.52,5.75-17,13.92-31.55,18.77C826.44,109,814.45,110.67,797.09,104.72Z" transform="translate(-4 -6.33)"/></g><g id="yellow"><path class="cls-3" d="M822.52,200.13c.49.29,4.75,2.88,5.73,5.93a9.23,9.23,0,0,1,.63,3.1,3.82,3.82,0,0,0,.13,2.23l.5.87.5.86,1.4,2.43L855,256.44,864,272,783.07,425.17l-99-158a175.49,175.49,0,0,0,30.14-42.68c7.34-14.66,16.24-33,15.4-57.37a94.61,94.61,0,0,0-2.42-18.22l-5.12-9.73,5.09,3.25,3.31,4.24,34.6,55.93A40.85,40.85,0,0,1,773,226.37q-6.24,23.22-12.47,46.44l2.5,4.33,13,23,4.35,5.18a38.47,38.47,0,0,0,1.78,4.3c.71,1.46,1.37,2.57,1.73,3.16.57.94,1.09,1.68,1.44,2.18l5.91-14.89a55.11,55.11,0,0,1,4-12.91c1.93-4.27,3.54-6.61,5.67-12.36a48.77,48.77,0,0,0,1.92-6.78c3.82-18-3.48-21.73-.4-36.71C804.07,223.36,808.67,212.16,822.52,200.13Z" transform="translate(-4 -6.33)"/></g><g id="&#x442;&#x435;&#x43A;&#x441;&#x442;"><text class="cls-4" transform="translate(0 367.34)">ETHIC</text><text class="cls-4" transform="translate(952.79 367.34)">BUSSINES</text></g><g id="Layer_8" data-name="Layer 8"><path d="M1012.07,26.17,837.75,32.51h0L803.46,91.23a9.2,9.2,0,0,1-1,1.73A5.78,5.78,0,0,1,800.07,95a4.62,4.62,0,0,1-1.36.36,6,6,0,0,1-1.93-.09A70,70,0,0,1,783,82.73a139.31,139.31,0,0,1-11.87-17.36c-2.47-4.28-4.74-8.86-9.13-18.07-2.17-4.54-3.9-8.37-5.11-11.09q-2.15-5.1-4.24-10.58c-2.28-6-4.28-11.82-6-17.42-.26-.84-.68-1.87-1.22-1.88h0l-186.51,8-8.76,13.8L735.84,23c11.73,28.46,17.61,42.72,23.86,52,7.06,10.47,12.28,18.37,19.86,25.49,5.54,5.21,12,11.19,22.3,15.35a60,60,0,0,0,13.23,3.64l-3.76.11-.62,0-.89,0c-.38,0-57.92,2.66-68.75,2.58a18.24,18.24,0,0,1-6-1,18.62,18.62,0,0,1-4-2,67.61,67.61,0,0,1-9-7c-7.53-6.62-6.4-5.51-8-7s-1.27-1.26-9-9l-9-9c-.73-.74-2.63-2.47-3.12-3H642.07L663.57,116c1.29,2.28,2.77,4.67,4.5,7.13,1,1.42,2,2.75,3,4a84.74,84.74,0,0,1,26,10,47.18,47.18,0,0,1,8,6,40.78,40.78,0,0,1,9,12c3.48,7.32,3.39,14,3.07,20.67a9.57,9.57,0,0,0-1.07-.67,9.42,9.42,0,0,0-4-1,16.44,16.44,0,0,0-2,0h-68l-91-146h-1q46,73.5,92,147h68a9.39,9.39,0,0,1,2,0,5.85,5.85,0,0,1,3,1,5,5,0,0,1,1,1,6,6,0,0,1,.9,1.71,70,70,0,0,1-3.9,18.29,136.39,136.39,0,0,1-9,19c-2.45,4.3-5.25,8.56-11,17-2.83,4.16-5.26,7.59-7,10q-3.32,4.44-7,9-6,7.49-12,14c-.58.65-1.26,1.54-1,2l101,157h16L864.36,272l-.32.18.32-.18-33.49-59.18a9,9,0,0,1-1-1.74,5.94,5.94,0,0,1-.61-3.11,5.17,5.17,0,0,1,.38-1.36,6,6,0,0,1,1.05-1.62,70.3,70.3,0,0,1,17.84-5.62,137.74,137.74,0,0,1,21-1.52c5,0,10,.35,20.22,1.2,5,.41,9.19.84,12.15,1.17,3.66.47,7.43,1,11.28,1.65,6.33,1.05,12.36,2.25,18.09,3.55.85.19,2,.35,2.24-.11Q976.92,122.64,1020.37,40,1016.23,33.1,1012.07,26.17ZM830,213.26l33.49,59.18-81,151.87L685.21,268c18.67-24.49,28-36.76,32.86-46.83,5.48-11.37,9.68-19.87,12-30,1.71-7.42,3.6-16,2-27a61.2,61.2,0,0,0-8.93-23.93c.62.67,6.45,6.94,9.43,11.81,0,0,.07.11.16.24l.17.28.46.76c.21.32,30.85,49.1,36.11,58.56a18.18,18.18,0,0,1,2.09,5.71,19.09,19.09,0,0,1,.23,4.47,68.37,68.37,0,0,1-1.66,11.28c-2.06,9.82-1.65,8.29-2.16,10.41s-.46,1.73-3.4,12.27q-1.7,6.12-3.4,12.26c-.28,1-.86,3.51-1.07,4.2l.43.76,15.27,27,9.36,16.54q8.57-17.2,17.15-34.41a82.08,82.08,0,0,0,4-7.43c.75-1.57,1.41-3.1,2-4.58a84.6,84.6,0,0,1-4.1-27.55,47,47,0,0,1,1.28-9.92,40.62,40.62,0,0,1,6-13.74c4.66-6.63,10.5-9.83,16.47-12.85a9.87,9.87,0,0,0-.05,1.26,9.25,9.25,0,0,0,1.1,4A14.42,14.42,0,0,0,830,213.26Zm93.89-24.57c-30.5-4.19-45.78-6.28-56.93-5.54-12.6.83-22.05,1.37-32,4.33-7.3,2.17-15.71,4.76-24.48,11.56a61.85,61.85,0,0,0-18.08,22.87s-6.72,15.5-.25,45.44q-7.9,15.9-15.79,31.8l-15.19-26.83c1.54-3.42,5.13-15.41,7.55-23.22.62-2,1.42-4.6,2.26-8.18.31-1.33.8-3.9,1.78-9,.65-3.46.86-4.62,1-6.32a29.91,29.91,0,0,0,.14-5.83,24.31,24.31,0,0,0-1.7-7.08c-2.11-3.38-37.49-60.32-37.52-60.36-.17-.28-.45-.75-.87-1.41a64.25,64.25,0,0,0-16-17.12c-5-4.6-16.07-12.92-36.15-19.18l-19.9-29.4h30.83c2.21,3,10.88,12,16.49,18,1.46,1.54,3.3,3.51,6,6,1,.93,3,2.62,7,6a62.38,62.38,0,0,0,5,4,30.74,30.74,0,0,0,5,3,24.33,24.33,0,0,0,7,2l71-2.92c.23,0,.83,0,1.66-.06A48.67,48.67,0,0,0,820,120a64.44,64.44,0,0,0,10.69-.1s16.78-2,39.4-22.64l35.43-2.36L890,121.51c-3.73.39-15.9,3.32-23.86,5.17-2.07.48-4.69,1.07-8.21,2.15-1.3.4-3.77,1.28-8.71,3a63.44,63.44,0,0,0-6,2.3,30.26,30.26,0,0,0-5.11,2.81,24.5,24.5,0,0,0-5.26,5c-1.87,3.53-33.27,62.75-33.29,62.8-.11.2-.4.72-.78,1.46a47.84,47.84,0,0,0-4,10.8l5.61-10.32.29-.55.42-.78c.18-.34,26.91-51.36,32.44-60.67a18.12,18.12,0,0,1,3.89-4.68,18.62,18.62,0,0,1,3.74-2.44,68.29,68.29,0,0,1,10.59-4.25c9.52-3.16,8-2.75,10.08-3.37s1.73-.47,12.31-3.24l12.31-3.23c1-.26,3.46-1,4.16-1.18l.45-.76,15.63-26.77,9.58-16.41L878,80.89c-2.62,0-5.43,0-8.43.3-1.73.15-3.38.34-5,.57h0a84.89,84.89,0,0,1-21.75,17.41,47.3,47.3,0,0,1-9.22,3.88,40.76,40.76,0,0,1-14.9,1.72c-8.07-.69-13.77-4.13-19.39-7.77a8.32,8.32,0,0,0,1.11-.59,9.11,9.11,0,0,0,2.88-3,13.79,13.79,0,0,0,1-1.73Q821.46,62.37,838.62,33l-.51-.3.51.3,172.9-5.83Z" transform="translate(-4 -6.33)"/></g></symbol></svg>