<svg xmlns="http://www.w3.org/2000/svg" viewBox="0 0 1862.1 431.8"><style>.st4{font-family:&apos;Vani&apos;}.st5{font-size:162px}.st6{letter-spacing:16}</style><g id="blue"><linearGradient id="SVGID_1_" gradientUnits="userSpaceOnUse" x1="684.178" y1="176.293" x2="684.178" y2="22.68"><stop offset="0" stop-color="#fff"/><stop offset=".078" stop-color="#cee5eb"/><stop offset=".167" stop-color="#9ecbd6"/><stop offset=".261" stop-color="#74b4c5"/><stop offset=".359" stop-color="#50a0b6"/><stop offset=".461" stop-color="#3391a9"/><stop offset=".57" stop-color="#1c84a0"/><stop offset=".687" stop-color="#0c7c99"/><stop offset=".82" stop-color="#037795"/><stop offset="1" stop-color="#007594"/></linearGradient><path d="M725.1 174.2c-.5.3-4.9 2.7-8 2-2.3-.5-3-1-3-1-.6-.4-1.1-1-2-1h-70c-30.3-48.7-60.7-97.3-91-146 61.6-1.8 123.1-3.7 184.7-5.5 7.4 15.2 14.9 30.3 22.3 45.5 19.2 32.3 32.8 40.9 42 42 2.8.3 15.2 1.2 17 7 .4 1.2.2 2.2 0 3-22 .7-44 1.3-66 2-2.9.6-8 1.3-14 0-4.4-1-7.8-2.6-10-4l-34-34h-5c-9.5.1-13.8.7-25 1-4.6.1-6.9.2-8.1 0-2-.3-4.6-1-8.2-.7-1.6.1-2.4.2-2.7.7-1.2 2 6.1 8.4 10 12 14.1 13.1 11.9 16.9 22 26 13.7 12.3 20.6 7.8 32 18 6.1 5.4 13.5 15 17 33z" fill="url(#SVGID_1_)"/></g><g id="green"><linearGradient id="SVGID_2_" gradientUnits="userSpaceOnUse" x1="795.073" y1="121.672" x2="1012.073" y2="121.672"><stop offset="0" stop-color="#fff"/><stop offset=".036" stop-color="#e1e8e1"/><stop offset=".099" stop-color="#b2c4b3"/><stop offset=".167" stop-color="#88a389"/><stop offset=".24" stop-color="#638665"/><stop offset=".318" stop-color="#446f46"/><stop offset=".402" stop-color="#2b5b2e"/><stop offset=".497" stop-color="#184c1b"/><stop offset=".606" stop-color="#0a420d"/><stop offset=".743" stop-color="#023c05"/><stop offset="1" stop-color="#003a03"/></linearGradient><path d="M797.1 104.7c0-.6.1-5.6 2.3-7.9 1.6-1.7 2.4-2.1 2.4-2.1.6-.3 1.4-.5 1.9-1.2 0-.1 0-.1.5-.9 0 0 .1-.3.5-.9.5-.8.9-1.6 1.4-2.4 7.8-13.6 15.7-27.3 23.5-40.9l9-15.6c57.9-1.9 115.7-3.7 173.6-5.6-29.3 54.3-58.7 108.7-88 163-21.5-4.8-39.4-4.8-51.5-4-16.8 1.1-36.9 2.7-57.3 15.5-6.5 4.1-11.4 8.3-14.5 11.3-1.9 1.1-3.7 2.2-5.6 3.3.7-1.7 1.3-3.3 2-5 10.3-19.3 20.7-38.7 31-58 1.4-3.1 3.8-7.7 8.1-12.1 3-3.1 6-5.2 8.5-6.7 15.5-4.2 30.9-8.4 46.4-12.5.5-.9 1.4-2.4 2.5-4.3 4.7-8.3 6.3-12.3 11.6-22.2 2.2-4 3.3-6.1 4.1-7 1.5-1.8 3-3.6 4.7-6.8.5-1 .9-1.8 1.2-2.3-5.3.8-10.6 1.6-15.8 2.4-5.5 2-10 2.7-13.1 3.1-4.7.5-7.5.3-13.5 1.3-2 .3-4.2.9-6.8 1.7-17.5 5.8-17 13.9-31.6 18.8-8.2 2.3-20.2 4-37.5-2z" fill="url(#SVGID_2_)"/></g><g id="yellow"><linearGradient id="SVGID_3_" gradientUnits="userSpaceOnUse" x1="684.073" y1="282.173" x2="863.981" y2="282.173"><stop offset="0" stop-color="#fff"/><stop offset=".026" stop-color="#fcf8eb"/><stop offset=".095" stop-color="#f3e8ba"/><stop offset=".17" stop-color="#ecda8e"/><stop offset=".249" stop-color="#e5cd67"/><stop offset=".333" stop-color="#e0c247"/><stop offset=".422" stop-color="#dcba2d"/><stop offset=".521" stop-color="#d8b319"/><stop offset=".633" stop-color="#d6af0b"/><stop offset=".769" stop-color="#d4ac02"/><stop offset="1" stop-color="#d4ab00"/></linearGradient><path d="M822.5 200.1c.5.3 4.8 2.9 5.7 5.9.7 2.2.6 3.1.6 3.1-.1.7-.3 1.5.1 2.2 0 .1 0 .1.5.9 0 0 .1.3.5.9.5.8.9 1.6 1.4 2.4 7.9 13.6 15.7 27.3 23.6 40.9l9 15.6c-27 51-53.9 102.1-80.9 153.1-33-52.7-66-105.3-99-158 15.3-16 24.6-31.6 30.1-42.7 7.3-14.7 16.2-33 15.4-57.4-.3-7.7-1.4-14-2.4-18.2-1.7-3.2-3.4-6.5-5.1-9.7 1.7 1.1 3.4 2.2 5.1 3.2l3.3 4.2c11.5 18.6 23.1 37.3 34.6 55.9 2 2.8 4.7 7.2 6.4 13.1 1.2 4.1 1.5 7.8 1.5 10.7-4.2 15.5-8.3 31-12.5 46.4.8 1.4 1.7 2.9 2.5 4.3 4.3 7.7 8.7 15.4 13 23 1.4 1.7 2.9 3.5 4.3 5.2.6 1.7 1.2 3.1 1.8 4.3.7 1.5 1.4 2.6 1.7 3.2.6.9 1.1 1.7 1.4 2.2 2-5 3.9-9.9 5.9-14.9 1-5.7 2.6-10 3.9-12.9 1.9-4.3 3.5-6.6 5.7-12.4.7-1.9 1.3-4.1 1.9-6.8 3.8-18-3.5-21.7-.4-36.7 2-7.7 6.6-18.9 20.4-31z" fill="url(#SVGID_3_)"/></g><g id="текст"><text transform="translate(4 373.672)" class="st4 st5 st6">ETHIC</text><text transform="translate(956.793 373.673)" class="st4 st5 st6">BUSINESS</text></g><path d="M1012.1 26.2l-174.3 6.3c-11.4 19.6-22.9 39.1-34.3 58.7-.3.8-.7 1.3-1 1.7-.5.7-1.2 1.6-2.4 2.1-.6.3-1.1.3-1.4.4-.7.1-1.3 0-1.9-.1-3.8-2.6-8.8-6.7-13.8-12.6-5.5-6.8-9.3-12.9-11.9-17.4-2.5-4.3-4.7-8.9-9.1-18.1-2.2-4.5-3.9-8.4-5.1-11.1-1.4-3.4-2.9-6.9-4.2-10.6-2.3-6-4.3-11.8-6-17.4-.3-.8-.7-1.9-1.2-1.9-62.2 2.7-124.3 5.4-186.5 8-2.9 4.6-5.8 9.2-8.8 13.8 61.9-1.7 123.8-3.5 185.8-5.2 11.7 28.5 17.6 42.7 23.9 52 7.1 10.5 12.3 18.4 19.9 25.5 5.5 5.2 12 11.2 22.3 15.3 4.7 1.9 9.1 3 13.2 3.6-1.3 0-2.5.1-3.8.1H810c-.4 0-57.9 2.7-68.8 2.6-1 0-3.3-.1-6-1-1.7-.6-2.9-1.3-4-2-3.8-2.4-6.4-4.7-9-7-7.5-6.6-6.4-5.5-8-7-1.7-1.6-1.3-1.3-9-9l-9-9c-.7-.7-2.6-2.5-3.1-3h-50.9c7.2 10.6 14.3 21.2 21.5 31.9 1.3 2.3 2.8 4.7 4.5 7.1 1 1.4 2 2.8 3 4 7.4 1.6 17.1 4.5 26 10 4.2 2.6 6.7 4.7 8 6 1.7 1.6 6 5.8 9 12 3.5 7.3 3.4 14 3.1 20.7-.4-.3-.8-.5-1.1-.7-1.5-.8-2.9-.9-4-1-1.1-.1-1.9 0-2 0h-68c-30.3-48.7-60.7-97.3-91-146h-1c30.7 49 61.3 98 92 147h68c.8-.1 1.5-.1 2 0 .8.1 2 .2 3 1 .5.4.8.8 1 1 .4.5.7 1.1.9 1.7-.3 4.6-1.3 11-3.9 18.3-3.1 8.2-6.4 14.5-9 19-2.5 4.3-5.3 8.6-11 17-2.8 4.2-5.3 7.6-7 10-2.2 3-4.5 6-7 9-4 5-8 9.7-12 14-.6.6-1.3 1.5-1 2 33.7 52.3 67.3 104.7 101 157h16c27.1-51.1 54.2-102.1 81.3-153.2-.1.1-.2.1-.3.2.1-.1.2-.1.3-.2-11.2-19.7-22.3-39.5-33.5-59.2-.5-.7-.8-1.3-1-1.7-.3-.8-.8-1.8-.6-3.1.1-.6.3-1.1.4-1.4.3-.6.6-1.1 1-1.6 4.2-2 10.2-4.3 17.8-5.6 8.7-1.3 15.8-1.5 21-1.5 4.9 0 10 .4 20.2 1.2 5 .4 9.2.8 12.2 1.2 3.7.5 7.4 1 11.3 1.7 6.3 1 12.4 2.2 18.1 3.5.9.2 2 .3 2.2-.1 29-55.1 57.9-110.1 86.9-165.2-2.9-4.5-5.7-9.1-8.4-13.7zM830 213.3c11.2 19.7 22.3 39.5 33.5 59.2-27 50.6-54 101.2-81 151.9-32.4-52.1-64.9-104.2-97.3-156.3 18.7-24.5 28-36.8 32.9-46.8 5.5-11.4 9.7-19.9 12-30 1.7-7.4 3.6-16 2-27-1.5-10.5-5.6-18.6-8.9-23.9.6.7 6.4 6.9 9.4 11.8l.2.2c.1.1.1.2.2.3 0 0 .2.4.5.8.2.3 30.8 49.1 36.1 58.6.5.9 1.6 2.9 2.1 5.7.3 1.7.3 3.1.2 4.5-.2 4.4-1 7.9-1.7 11.3-2.1 9.8-1.6 8.3-2.2 10.4-.5 2.3-.5 1.7-3.4 12.3-1.1 4.1-2.3 8.2-3.4 12.3-.3 1-.9 3.5-1.1 4.2l.4.8 15.3 27c3.1 5.5 6.2 11 9.4 16.5 5.7-11.5 11.4-22.9 17.2-34.4 1.4-2.2 2.7-4.7 4-7.4.7-1.6 1.4-3.1 2-4.6-2.2-7.2-4.5-17.1-4.1-27.6.2-4.9.8-8.1 1.3-9.9.6-2.2 2.1-8.1 6-13.7 4.7-6.6 10.5-9.8 16.5-12.8-.1.5-.1 1-.1 1.3 0 1.7.6 3 1.1 4 .4.5.8 1.2.9 1.3zm93.9-24.6c-30.5-4.2-45.8-6.3-56.9-5.5-12.6.8-22.1 1.4-32 4.3-7.3 2.2-15.7 4.8-24.5 11.6-10.2 7.9-15.5 17.4-18.1 22.9 0 0-6.7 15.5-.3 45.4-5.3 10.6-10.5 21.2-15.8 31.8l-15.2-26.8c1.5-3.4 5.1-15.4 7.5-23.2.6-2 1.4-4.6 2.3-8.2.3-1.3.8-3.9 1.8-9 .7-3.5.9-4.6 1-6.3.2-1.8.3-3.6.1-5.8-.1-1.7-.5-4.2-1.7-7.1-2.1-3.4-37.5-60.3-37.5-60.4-.2-.3-.4-.7-.9-1.4-5-7.8-10.8-13.2-16-17.1-5-4.6-16.1-12.9-36.2-19.2-6.6-9.8-13.3-19.6-19.9-29.4h30.8c2.2 3 10.9 12 16.5 18 1.5 1.5 3.3 3.5 6 6 1 .9 3 2.6 7 6 2.7 2.3 3.6 3 5 4 1.5 1.1 3 2.1 5 3 1.6.7 3.9 1.6 7 2 4-.2 71-2.9 71-2.9.2 0 .8 0 1.7-.1 3.2-.2 6-.7 8.3-1.2 4.3.3 8 .2 10.7-.1 0 0 16.8-2 39.4-22.6l35.4-2.4-15.4 26.5c-3.7.4-15.9 3.3-23.9 5.2-2.1.5-4.7 1.1-8.2 2.2-1.3.4-3.8 1.3-8.7 3-3.3 1.2-4.4 1.6-6 2.3-1.7.8-3.3 1.5-5.1 2.8-1.4 1-3.3 2.6-5.3 5-1.9 3.5-33.3 62.7-33.3 62.8-.1.2-.4.7-.8 1.5-2.2 4.4-3.4 8.2-4 10.8 1.9-3.4 3.7-6.9 5.6-10.3.1-.2.2-.3.3-.5l.4-.8c.2-.3 26.9-51.4 32.4-60.7.5-.9 1.7-2.8 3.9-4.7 1.3-1.1 2.6-1.8 3.7-2.4 3.9-2 7.3-3.2 10.6-4.2 9.5-3.2 8-2.8 10.1-3.4 2.2-.7 1.7-.5 12.3-3.2 4.1-1.1 8.2-2.2 12.3-3.2 1-.3 3.5-1 4.2-1.2l.4-.8c5.2-8.9 10.4-17.8 15.6-26.8 3.2-5.5 6.4-10.9 9.6-16.4-12.8.8-25.6 1.7-38.4 2.5-2.6 0-5.4 0-8.4.3-1.7.1-3.4.3-5 .6-5.1 5.6-12.5 12.4-21.7 17.4-4.3 2.3-7.5 3.4-9.2 3.9-2.2.7-8 2.3-14.9 1.7-8.1-.7-13.8-4.1-19.4-7.8.4-.2.9-.4 1.1-.6 1.5-.9 2.3-2.1 2.9-2.9.6-.9 1-1.6 1-1.7 11.4-19.6 22.9-39.1 34.3-58.7-.2-.1-.3-.2-.5-.3.2.1.3.2.5.3 57.6-1.9 115.3-3.9 172.9-5.8-29 53.6-58.2 107.5-87.4 161.3z" id="Layer_8"/></svg>